<mxfile host="app.diagrams.net" modified="2022-03-19T14:32:02.998Z" agent="5.0 (Windows NT 6.1) AppleWebKit/537.36 (KHTML, like Gecko) Chrome/99.0.4844.74 Safari/537.36" etag="w-c7IKLzqtfCX6kjmhCZ" version="17.1.3" type="github">
  <diagram id="R2lEEEUBdFMjLlhIrx00" name="Page-1">
    <mxGraphModel dx="639" dy="526" grid="1" gridSize="10" guides="1" tooltips="1" connect="1" arrows="1" fold="1" page="1" pageScale="1" pageWidth="850" pageHeight="1100" math="0" shadow="0" extFonts="Permanent Marker^https://fonts.googleapis.com/css?family=Permanent+Marker">
      <root>
        <mxCell id="0" />
        <mxCell id="1" parent="0" />
        <mxCell id="NU28CYF58h-7oINTEebt-3" value="" style="edgeStyle=orthogonalEdgeStyle;rounded=0;orthogonalLoop=1;jettySize=auto;html=1;fontColor=#6600CC;" edge="1" parent="1" source="NU28CYF58h-7oINTEebt-1" target="NU28CYF58h-7oINTEebt-2">
          <mxGeometry relative="1" as="geometry" />
        </mxCell>
        <mxCell id="NU28CYF58h-7oINTEebt-5" value="" style="edgeStyle=orthogonalEdgeStyle;rounded=0;orthogonalLoop=1;jettySize=auto;html=1;fontColor=#6600CC;" edge="1" parent="1" source="NU28CYF58h-7oINTEebt-1" target="NU28CYF58h-7oINTEebt-4">
          <mxGeometry relative="1" as="geometry" />
        </mxCell>
        <mxCell id="NU28CYF58h-7oINTEebt-7" value="" style="edgeStyle=orthogonalEdgeStyle;rounded=0;orthogonalLoop=1;jettySize=auto;html=1;fontColor=#6600CC;" edge="1" parent="1" source="NU28CYF58h-7oINTEebt-1" target="NU28CYF58h-7oINTEebt-6">
          <mxGeometry relative="1" as="geometry" />
        </mxCell>
        <mxCell id="NU28CYF58h-7oINTEebt-11" style="edgeStyle=orthogonalEdgeStyle;rounded=0;orthogonalLoop=1;jettySize=auto;html=1;exitX=0.25;exitY=1;exitDx=0;exitDy=0;fontColor=#6600CC;" edge="1" parent="1" source="NU28CYF58h-7oINTEebt-1" target="NU28CYF58h-7oINTEebt-8">
          <mxGeometry relative="1" as="geometry" />
        </mxCell>
        <mxCell id="NU28CYF58h-7oINTEebt-13" style="edgeStyle=orthogonalEdgeStyle;rounded=0;orthogonalLoop=1;jettySize=auto;html=1;exitX=0.75;exitY=1;exitDx=0;exitDy=0;fontColor=#000000;" edge="1" parent="1" source="NU28CYF58h-7oINTEebt-1" target="NU28CYF58h-7oINTEebt-14">
          <mxGeometry relative="1" as="geometry">
            <mxPoint x="265" y="320" as="targetPoint" />
          </mxGeometry>
        </mxCell>
        <mxCell id="NU28CYF58h-7oINTEebt-1" value="&lt;h2&gt;&lt;font color=&quot;#6600cc&quot;&gt;Persona&lt;/font&gt;&lt;/h2&gt;" style="whiteSpace=wrap;html=1;align=center;" vertex="1" parent="1">
          <mxGeometry x="190" y="260" width="100" height="30" as="geometry" />
        </mxCell>
        <mxCell id="NU28CYF58h-7oINTEebt-2" value="id_Persona" style="ellipse;whiteSpace=wrap;html=1;" vertex="1" parent="1">
          <mxGeometry x="135" y="180" width="100" height="30" as="geometry" />
        </mxCell>
        <mxCell id="NU28CYF58h-7oINTEebt-4" value="nombre" style="ellipse;whiteSpace=wrap;html=1;" vertex="1" parent="1">
          <mxGeometry x="260" y="180" width="90" height="30" as="geometry" />
        </mxCell>
        <mxCell id="NU28CYF58h-7oINTEebt-6" value="apellido" style="ellipse;whiteSpace=wrap;html=1;" vertex="1" parent="1">
          <mxGeometry x="110" y="250" width="60" height="40" as="geometry" />
        </mxCell>
        <mxCell id="NU28CYF58h-7oINTEebt-8" value="&lt;font color=&quot;#000000&quot;&gt;profesiÃ³n&lt;/font&gt;" style="ellipse;whiteSpace=wrap;html=1;align=center;fontColor=#6600CC;" vertex="1" parent="1">
          <mxGeometry x="120" y="330" width="100" height="40" as="geometry" />
        </mxCell>
        <mxCell id="NU28CYF58h-7oINTEebt-14" value="edad&lt;br&gt;fec_nac" style="ellipse;whiteSpace=wrap;html=1;align=center;fontColor=#000000;" vertex="1" parent="1">
          <mxGeometry x="235" y="330" width="100" height="40" as="geometry" />
        </mxCell>
        <mxCell id="NU28CYF58h-7oINTEebt-18" value="" style="edgeStyle=orthogonalEdgeStyle;rounded=0;orthogonalLoop=1;jettySize=auto;html=1;fontSize=18;fontColor=#3333FF;" edge="1" parent="1" source="NU28CYF58h-7oINTEebt-16" target="NU28CYF58h-7oINTEebt-17">
          <mxGeometry relative="1" as="geometry" />
        </mxCell>
        <mxCell id="NU28CYF58h-7oINTEebt-16" value="&lt;font color=&quot;#3333ff&quot; style=&quot;font-size: 18px&quot;&gt;&lt;b&gt;Estudio&lt;/b&gt;&lt;/font&gt;" style="whiteSpace=wrap;html=1;align=center;fontColor=#000000;" vertex="1" parent="1">
          <mxGeometry x="410" y="260" width="100" height="35" as="geometry" />
        </mxCell>
        <mxCell id="NU28CYF58h-7oINTEebt-17" value="titulo" style="ellipse;whiteSpace=wrap;html=1;fontColor=#000000;" vertex="1" parent="1">
          <mxGeometry x="415" y="210" width="90" height="22.5" as="geometry" />
        </mxCell>
      </root>
    </mxGraphModel>
  </diagram>
</mxfile>
